<?xml version="1.0" standalone="no"?>
<!DOCTYPE svg PUBLIC "-//W3C//DTD SVG 20010904//EN"
 "http://www.w3.org/TR/2001/REC-SVG-20010904/DTD/svg10.dtd">
<svg version="1.0" xmlns="http://www.w3.org/2000/svg"
 width="6409.000000pt" height="6409.000000pt" viewBox="0 0 6409.000000 6409.000000"
 preserveAspectRatio="xMidYMid meet">

<g transform="translate(0.000000,6409.000000) scale(0.100000,-0.100000)"
fill="#000000" stroke="none">
<path d="M44116 54879 c-633 -43 -1149 -150 -1589 -330 -219 -90 -485 -240
-842 -474 -1810 -1185 -3022 -2831 -3803 -5160 -285 -849 -472 -1604 -761
-3075 -323 -1641 -907 -2482 -1892 -2724 -187 -46 -552 -96 -699 -96 l-47 0
-7 123 c-30 554 -128 1206 -257 1720 -22 87 -58 238 -79 335 -545 2415 -2323
4394 -4663 5188 -568 193 -1125 308 -1747 360 -282 24 -838 24 -1120 0 -853
-72 -1628 -271 -2392 -615 -84 -38 -216 -95 -293 -126 -313 -129 -660 -303
-980 -490 -77 -45 -1128 -702 -2335 -1460 -5291 -3322 -18859 -11838 -19610
-12309 -454 -285 -829 -522 -834 -526 -13 -13 -59 -525 -90 -1010 -9 -129 -18
-269 -20 -310 -13 -186 -18 -380 -12 -380 4 0 490 301 1079 668 590 368 3725
2324 6967 4347 3242 2023 6260 3905 6705 4183 842 526 937 579 1285 727 1106
471 2190 643 3230 514 1808 -224 3363 -1365 4190 -3071 484 -1000 665 -2130
515 -3203 -214 -1520 -1066 -2890 -2430 -3906 -78 -57 -1017 -650 -2340 -1476
-5425 -3387 -17429 -10884 -17433 -10888 -8 -7 330 -921 347 -938 5 -5 179 98
412 244 2501 1563 4221 2630 4322 2680 279 140 622 281 947 389 1385 461 2722
447 3949 -42 1838 -732 3174 -2508 3415 -4538 37 -308 48 -738 26 -1030 -124
-1670 -984 -3163 -2455 -4264 -136 -102 -975 -629 -4415 -2774 -206 -128 -378
-236 -382 -240 -4 -4 48 -68 114 -142 188 -210 529 -580 535 -580 3 0 1770
1101 3926 2447 2157 1345 6444 4020 9527 5943 3083 1923 6188 3860 6900 4305
1382 862 1379 861 1785 1032 1161 490 2321 651 3400 472 1480 -246 2772 -1099
3618 -2389 723 -1104 1046 -2437 901 -3720 -176 -1560 -1026 -2973 -2419
-4020 -135 -101 -626 -412 -2365 -1497 -1207 -754 -4454 -2781 -7215 -4505
-2761 -1724 -5759 -3595 -6662 -4159 -903 -563 -1642 -1027 -1643 -1030 0 -7
437 -208 825 -379 290 -128 761 -325 1044 -438 l124 -49 211 127 c116 70 717
432 1336 805 619 373 2520 1518 4225 2545 7415 4466 10221 6159 13910 8395
3673 2226 8252 5016 8505 5183 1004 662 1806 1707 2268 2957 485 1313 579
2793 267 4191 -122 542 -282 1005 -543 1565 -201 434 -573 1011 -912 1419
-304 364 -712 772 -1055 1053 -949 778 -2118 1312 -3305 1512 -52 8 -119 20
-148 26 l-53 11 153 147 c610 590 1225 1347 1665 2051 859 1374 1358 2885
1562 4727 88 787 115 1383 115 2473 0 794 -3 929 -49 2355 -44 1368 -48 1581
-49 2375 0 767 8 1109 39 1660 126 2233 551 4064 1345 5805 46 99 114 242 152
319 38 76 66 142 61 146 -4 4 -48 17 -98 28 -49 12 -233 55 -407 96 -1627 387
-2968 615 -4128 702 -249 19 -1118 28 -1324 13z m4087 -2381 c-154 -510 -328
-1215 -447 -1813 -321 -1622 -442 -3241 -408 -5450 16 -983 39 -2088 52 -2465
32 -893 34 -1333 9 -1990 -66 -1761 -359 -3295 -884 -4620 -129 -325 -216
-519 -381 -850 -381 -764 -740 -1288 -1193 -1741 -287 -286 -513 -455 -802
-599 -464 -230 -919 -283 -1409 -163 -671 163 -1156 648 -1266 1268 -38 213
-20 509 47 783 61 252 113 389 373 986 1195 2742 1801 4472 2240 6391 192 841
268 1314 421 2630 150 1293 230 1785 396 2450 562 2252 1490 3912 2749 4921
170 136 507 374 530 374 4 0 -8 -51 -27 -112z m-3978 -4 c326 -81 563 -332
620 -659 19 -110 19 -160 0 -268 -52 -298 -259 -542 -542 -636 -309 -104 -629
-22 -855 217 -84 89 -138 181 -179 302 -27 81 -33 113 -37 220 -3 104 -1 140
17 215 80 333 351 578 692 625 79 11 204 4 284 -16z"/>
<path d="M18267 42960 c-72 -13 -147 -38 -218 -74 -35 -17 -1758 -1105 -3829
-2418 -2071 -1313 -6114 -3876 -8985 -5696 l-5220 -3309 0 -99 c0 -139 14
-655 20 -745 3 -41 12 -216 21 -389 9 -173 18 -317 20 -319 2 -2 40 20 86 49
95 61 13479 8542 16553 10489 1122 711 2060 1310 2085 1330 103 86 202 240
235 366 20 77 20 243 0 320 -59 227 -237 411 -465 479 -65 20 -234 29 -303 16z"/>
<path d="M21013 41150 c-39 -10 -89 -28 -112 -39 -22 -12 -1828 -1153 -4013
-2537 -6466 -4096 -16633 -10536 -16635 -10538 -3 -2 70 -540 97 -716 11 -74
25 -166 31 -205 26 -177 86 -525 92 -531 3 -4 1333 834 2954 1862 7128 4517
13202 8368 17178 10892 939 596 1005 640 1080 716 98 99 149 194 171 318 39
216 -33 427 -205 599 -73 73 -101 93 -181 132 -52 25 -119 50 -148 56 -81 17
-227 13 -309 -9z"/>
<path d="M22040 38154 c-30 -8 -83 -28 -117 -43 -34 -16 -1559 -978 -3390
-2139 -1830 -1160 -5582 -3538 -8338 -5284 -8519 -5399 -9340 -5919 -9349
-5928 -10 -10 48 -262 174 -750 98 -378 167 -630 174 -638 3 -2 58 29 123 70
1136 721 15007 9520 16473 10450 1114 706 2648 1680 3410 2163 762 483 1405
896 1430 918 111 96 205 244 235 368 19 83 19 229 0 304 -63 245 -263 448
-500 510 -75 19 -251 19 -325 -1z"/>
<path d="M32935 23409 c-74 -11 -173 -42 -236 -74 -26 -14 -688 -430 -1471
-926 -2081 -1319 -7857 -4980 -14793 -9376 -3349 -2123 -6188 -3922 -6307
-3997 -120 -76 -220 -141 -222 -145 -12 -19 1005 -947 1027 -938 7 2 3725
2357 8262 5232 4538 2875 9596 6080 11240 7122 2880 1824 2993 1897 3065 1972
123 128 182 245 201 402 10 78 9 109 -4 182 -27 153 -119 311 -234 402 -65 52
-195 117 -263 133 -69 16 -198 22 -265 11z"/>
<path d="M9402 23075 c-34 -8 -97 -29 -140 -48 -45 -19 -682 -417 -1517 -947
-792 -502 -2225 -1410 -3185 -2018 -960 -607 -1749 -1108 -1754 -1112 -10 -10
44 -134 242 -550 250 -528 326 -680 339 -675 6 2 913 575 2015 1273 1102 698
2572 1629 3268 2069 1162 736 1271 807 1345 880 111 109 181 234 206 370 14
71 5 231 -15 296 -72 229 -262 409 -487 462 -78 18 -232 18 -317 0z"/>
<path d="M35725 21614 c-55 -12 -114 -29 -150 -44 -22 -10 -638 -396 -1370
-860 -6024 -3818 -21661 -13722 -21879 -13857 l-48 -30 158 -123 c366 -283
986 -740 1005 -740 6 0 1829 1153 4052 2562 8554 5421 13987 8866 16537 10485
641 406 1406 892 1700 1079 604 382 641 412 716 559 57 112 69 162 68 290 0
128 -16 192 -75 306 -93 178 -264 316 -454 364 -54 14 -210 19 -260 9z"/>
<path d="M12229 21286 c-36 -8 -90 -25 -120 -37 -30 -13 -1127 -703 -2439
-1534 -1312 -831 -3084 -1954 -3937 -2494 -854 -541 -1553 -989 -1553 -994 0
-21 436 -762 607 -1032 38 -60 76 -110 84 -109 14 1 2694 1698 6729 4262 1163
739 1179 749 1220 785 92 79 175 210 205 324 19 74 19 220 -1 303 -55 234
-255 446 -484 514 -77 23 -230 29 -311 12z"/>
<path d="M36670 18597 c-41 -13 -100 -36 -130 -53 -30 -17 -1112 -701 -2405
-1520 -3542 -2247 -11383 -7216 -18083 -11462 l-1043 -661 170 -105 c471 -292
1137 -680 1156 -672 7 2 1110 701 2451 1552 2315 1469 10282 6523 15879 10073
1744 1106 2598 1654 2638 1690 102 95 181 221 212 342 23 84 23 234 1 319 -62
241 -263 443 -502 504 -93 24 -250 20 -344 -7z"/>
<path d="M13236 18284 c-38 -9 -97 -28 -130 -43 -34 -16 -1220 -763 -2636
-1661 -1416 -898 -3041 -1928 -3610 -2288 -569 -360 -1037 -657 -1038 -658
-13 -10 788 -1094 808 -1094 9 0 1084 681 5388 3413 958 608 1763 1123 1788
1144 151 126 253 334 254 516 0 204 -116 432 -283 551 -169 120 -350 160 -541
120z"/>
</g>
</svg>
